<svg xmlns="http://www.w3.org/2000/svg" viewBox="0 0 640 360">
  <defs>
    <linearGradient id="g" x1="0" y1="0" x2="1" y2="1">
      <stop offset="0%" stop-color="#0f1a2e"/>
      <stop offset="100%" stop-color="#0a0a0f"/>
    </linearGradient>
  </defs>
  <rect width="640" height="360" fill="url(#g)"/>
  <g fill="none" stroke-width="2">
    <circle cx="320" cy="180" r="34" stroke="#a78bfa"/>
    <circle cx="320" cy="180" r="14" fill="#7c3aed" opacity="0.8"/>
    <circle cx="320" cy="180" r="95" stroke="#7c3aed" opacity="0.35"/>
    <circle cx="320" cy="180" r="150" stroke="#7c3aed" opacity="0.18"/>
    <rect x="395" y="95" width="84" height="56" rx="6" stroke="#22d3ee" opacity="0.8"/>
    <path d="M407 113 h40 M407 127 h26" stroke="#22d3ee" opacity="0.5"/>
    <rect x="160" y="210" width="84" height="56" rx="6" stroke="#22d3ee" opacity="0.8"/>
    <path d="M172 228 h40 M172 242 h26" stroke="#22d3ee" opacity="0.5"/>
    <circle cx="226" cy="120" r="9" fill="#a78bfa" stroke="none"/>
    <circle cx="438" cy="252" r="9" fill="#a78bfa" stroke="none"/>
    <path d="M320 146 L320 110 M354 180 L395 140 M286 180 L244 220 M320 214 L420 248" stroke="#a78bfa" opacity="0.4"/>
  </g>
</svg>
