<svg xmlns="http://www.w3.org/2000/svg" viewBox="0 0 640 360">
  <defs>
    <linearGradient id="g" x1="0" y1="0" x2="1" y2="1">
      <stop offset="0%" stop-color="#1e1033"/>
      <stop offset="100%" stop-color="#0a0a0f"/>
    </linearGradient>
  </defs>
  <rect width="640" height="360" fill="url(#g)"/>
  <g stroke="#7c3aed" stroke-width="2" fill="none" opacity="0.7">
    <rect x="70" y="120" width="90" height="120" rx="8"/>
    <rect x="85" y="105" width="90" height="120" rx="8" opacity="0.5"/>
    <path d="M180 165 L265 165" stroke-dasharray="6 6"/>
    <circle cx="320" cy="165" r="44"/>
    <circle cx="300" cy="150" r="6" fill="#a78bfa"/>
    <circle cx="335" cy="145" r="6" fill="#a78bfa"/>
    <circle cx="315" cy="185" r="6" fill="#a78bfa"/>
    <path d="M300 150 L335 145 M335 145 L315 185 M315 185 L300 150"/>
    <path d="M370 165 L455 165" stroke-dasharray="6 6"/>
    <rect x="460" y="110" width="110" height="140" rx="8" stroke="#22d3ee"/>
    <path d="M478 140 h74 M478 160 h74 M478 180 h50" stroke="#22d3ee" opacity="0.6"/>
  </g>
</svg>
